<svg width="437" height="358" viewBox="0 0 437 358" fill="none" xmlns="http://www.w3.org/2000/svg">
<rect width="437" height="358" rx="16" fill="white"/>
<path d="M25.328 41V29.72H30.112C31.3173 29.72 32.24 30.0133 32.88 30.6C33.5307 31.176 33.856 31.976 33.856 33C33.856 34.024 33.5307 34.8293 32.88 35.416C32.24 36.0027 31.3173 36.296 30.112 36.296H26.992V41H25.328ZM26.992 34.968H29.936C30.6933 34.968 31.264 34.7973 31.648 34.456C32.032 34.1147 32.224 33.6293 32.224 33C32.224 32.3813 32.032 31.9013 31.648 31.56C31.264 31.2187 30.6933 31.048 29.936 31.048H26.992V34.968ZM35.527 41V34.936C35.527 34.6053 35.5163 34.2747 35.495 33.944C35.4843 33.6027 35.463 33.2667 35.431 32.936H36.999L37.175 35.016H36.919C37.0257 34.5147 37.207 34.0987 37.463 33.768C37.719 33.4373 38.0283 33.192 38.391 33.032C38.7643 32.872 39.1537 32.792 39.559 32.792C39.7297 32.792 39.8737 32.8027 39.991 32.824C40.1083 32.8347 40.2257 32.856 40.343 32.888L40.327 34.328C40.1457 34.2533 39.9857 34.2107 39.847 34.2C39.719 34.1787 39.559 34.168 39.367 34.168C38.8977 34.168 38.4977 34.2747 38.167 34.488C37.8363 34.6907 37.5857 34.968 37.415 35.32C37.2443 35.672 37.159 36.0507 37.159 36.456V41H35.527ZM44.9369 41.144C44.1369 41.144 43.4435 40.9787 42.8569 40.648C42.2702 40.3067 41.8169 39.8267 41.4969 39.208C41.1769 38.5787 41.0169 37.832 41.0169 36.968C41.0169 36.104 41.1769 35.3627 41.4969 34.744C41.8169 34.1147 42.2702 33.6347 42.8569 33.304C43.4435 32.9627 44.1369 32.792 44.9369 32.792C45.7369 32.792 46.4302 32.9627 47.0169 33.304C47.6142 33.6347 48.0729 34.1147 48.3929 34.744C48.7235 35.3627 48.8889 36.104 48.8889 36.968C48.8889 37.832 48.7235 38.5787 48.3929 39.208C48.0729 39.8267 47.6142 40.3067 47.0169 40.648C46.4302 40.9787 45.7369 41.144 44.9369 41.144ZM44.9369 39.88C45.6409 39.88 46.2009 39.6347 46.6169 39.144C47.0329 38.6533 47.2409 37.928 47.2409 36.968C47.2409 36.008 47.0329 35.288 46.6169 34.808C46.2009 34.3173 45.6409 34.072 44.9369 34.072C44.2435 34.072 43.6889 34.3173 43.2729 34.808C42.8569 35.288 42.6489 36.008 42.6489 36.968C42.6489 37.928 42.8515 38.6533 43.2569 39.144C43.6729 39.6347 44.2329 39.88 44.9369 39.88ZM49.8338 44.536C49.6631 44.536 49.4657 44.52 49.2417 44.488C49.0071 44.456 48.8044 44.4027 48.6337 44.328V43.016C48.7724 43.0587 48.9271 43.096 49.0977 43.128C49.2577 43.1707 49.4124 43.192 49.5617 43.192C49.9778 43.192 50.2924 43.0587 50.5058 42.792C50.7298 42.536 50.8418 42.1093 50.8418 41.512V32.936H52.4578V41.624C52.4578 42.584 52.2444 43.3093 51.8178 43.8C51.3911 44.2907 50.7298 44.536 49.8338 44.536ZM50.6978 31.256V29.576H52.5858V31.256H50.6978ZM58.4901 41.144C57.1888 41.144 56.1648 40.776 55.4181 40.04C54.6715 39.304 54.2981 38.2853 54.2981 36.984C54.2981 36.1413 54.4581 35.4053 54.7781 34.776C55.1088 34.1467 55.5621 33.6613 56.1381 33.32C56.7248 32.968 57.4021 32.792 58.1701 32.792C58.9275 32.792 59.5621 32.952 60.0741 33.272C60.5861 33.592 60.9755 34.0453 61.2421 34.632C61.5088 35.208 61.6421 35.8907 61.6421 36.68V37.192H55.5621V36.264H60.5381L60.2661 36.472C60.2661 35.672 60.0848 35.0533 59.7221 34.616C59.3701 34.168 58.8581 33.944 58.1861 33.944C57.4395 33.944 56.8635 34.2053 56.4581 34.728C56.0528 35.24 55.8501 35.9493 55.8501 36.856V37.016C55.8501 37.9653 56.0795 38.68 56.5381 39.16C57.0075 39.64 57.6688 39.88 58.5221 39.88C58.9915 39.88 59.4288 39.816 59.8341 39.688C60.2501 39.5493 60.6448 39.3253 61.0181 39.016L61.5461 40.12C61.1728 40.4507 60.7195 40.7067 60.1861 40.888C59.6528 41.0587 59.0875 41.144 58.4901 41.144ZM66.6169 41.144C65.7422 41.144 65.0809 40.9093 64.6329 40.44C64.1849 39.96 63.9609 39.2453 63.9609 38.296V34.184H62.3929V32.936H63.9609V30.808L65.5769 30.376V32.936H67.8169V34.184H65.5769V38.152C65.5769 38.7493 65.6835 39.176 65.8969 39.432C66.1102 39.688 66.4195 39.816 66.8249 39.816C67.0275 39.816 67.2035 39.8 67.3529 39.768C67.5129 39.7253 67.6569 39.6773 67.7849 39.624V40.936C67.6249 41 67.4382 41.048 67.2249 41.08C67.0115 41.1227 66.8089 41.144 66.6169 41.144ZM72.6713 41.144C71.8713 41.144 71.1779 40.9787 70.5913 40.648C70.0046 40.3067 69.5513 39.8267 69.2313 39.208C68.9113 38.5787 68.7513 37.832 68.7513 36.968C68.7513 36.104 68.9113 35.3627 69.2313 34.744C69.5513 34.1147 70.0046 33.6347 70.5913 33.304C71.1779 32.9627 71.8713 32.792 72.6713 32.792C73.4713 32.792 74.1646 32.9627 74.7513 33.304C75.3486 33.6347 75.8073 34.1147 76.1273 34.744C76.4579 35.3627 76.6233 36.104 76.6233 36.968C76.6233 37.832 76.4579 38.5787 76.1273 39.208C75.8073 39.8267 75.3486 40.3067 74.7513 40.648C74.1646 40.9787 73.4713 41.144 72.6713 41.144ZM72.6713 39.88C73.3753 39.88 73.9353 39.6347 74.3513 39.144C74.7673 38.6533 74.9753 37.928 74.9753 36.968C74.9753 36.008 74.7673 35.288 74.3513 34.808C73.9353 34.3173 73.3753 34.072 72.6713 34.072C71.9779 34.072 71.4233 34.3173 71.0073 34.808C70.5913 35.288 70.3832 36.008 70.3832 36.968C70.3832 37.928 70.5859 38.6533 70.9913 39.144C71.4073 39.6347 71.9673 39.88 72.6713 39.88ZM81.2801 41.144C80.6081 41.144 79.9895 41.0587 79.4241 40.888C78.8588 40.7173 78.3895 40.4773 78.0161 40.168L78.5121 39.064C78.9068 39.3627 79.3441 39.5867 79.8241 39.736C80.3041 39.8853 80.7948 39.96 81.2961 39.96C81.8828 39.96 82.3255 39.8587 82.6241 39.656C82.9228 39.4427 83.0721 39.1547 83.0721 38.792C83.0721 38.5147 82.9761 38.2907 82.7841 38.12C82.6028 37.9493 82.2988 37.8213 81.8721 37.736L80.3361 37.432C79.6535 37.2827 79.1361 37.0267 78.7841 36.664C78.4321 36.3013 78.2561 35.8373 78.2561 35.272C78.2561 34.792 78.3841 34.3653 78.6401 33.992C78.9068 33.6187 79.2801 33.3253 79.7601 33.112C80.2508 32.8987 80.8215 32.792 81.4721 32.792C82.0695 32.792 82.6241 32.8773 83.1361 33.048C83.6481 33.2187 84.0748 33.464 84.4161 33.784L83.9041 34.856C83.5735 34.5787 83.2001 34.3653 82.7841 34.216C82.3681 34.056 81.9468 33.976 81.5201 33.976C80.9228 33.976 80.4801 34.088 80.1921 34.312C79.9041 34.536 79.7601 34.8293 79.7601 35.192C79.7601 35.4693 79.8455 35.6987 80.0161 35.88C80.1975 36.0507 80.4801 36.184 80.8641 36.28L82.4001 36.584C83.1255 36.7333 83.6695 36.9787 84.0321 37.32C84.3948 37.6613 84.5761 38.12 84.5761 38.696C84.5761 39.1973 84.4375 39.6347 84.1601 40.008C83.8828 40.3813 83.4988 40.664 83.0081 40.856C82.5175 41.048 81.9415 41.144 81.2801 41.144ZM90.7465 44.456V34.872C90.7465 34.5627 90.7305 34.248 90.6985 33.928C90.6772 33.5973 90.6505 33.2667 90.6185 32.936H92.1865L92.3465 34.76H92.1705C92.3412 34.152 92.6825 33.672 93.1945 33.32C93.7172 32.968 94.3358 32.792 95.0505 32.792C95.7652 32.792 96.3892 32.9627 96.9225 33.304C97.4558 33.6347 97.8665 34.1093 98.1545 34.728C98.4532 35.3467 98.6025 36.0933 98.6025 36.968C98.6025 37.832 98.4532 38.5787 98.1545 39.208C97.8665 39.8373 97.4558 40.3173 96.9225 40.648C96.3892 40.9787 95.7652 41.144 95.0505 41.144C94.3465 41.144 93.7332 40.9733 93.2105 40.632C92.6985 40.28 92.3572 39.8053 92.1865 39.208H92.3625V44.456H90.7465ZM94.6505 39.88C95.3545 39.88 95.9145 39.6347 96.3305 39.144C96.7572 38.6533 96.9705 37.928 96.9705 36.968C96.9705 36.008 96.7572 35.288 96.3305 34.808C95.9145 34.3173 95.3545 34.072 94.6505 34.072C93.9465 34.072 93.3812 34.3173 92.9545 34.808C92.5385 35.288 92.3305 36.008 92.3305 36.968C92.3305 37.928 92.5385 38.6533 92.9545 39.144C93.3812 39.6347 93.9465 39.88 94.6505 39.88ZM103.953 41.144C103.153 41.144 102.459 40.9787 101.873 40.648C101.286 40.3067 100.833 39.8267 100.513 39.208C100.193 38.5787 100.033 37.832 100.033 36.968C100.033 36.104 100.193 35.3627 100.513 34.744C100.833 34.1147 101.286 33.6347 101.873 33.304C102.459 32.9627 103.153 32.792 103.953 32.792C104.753 32.792 105.446 32.9627 106.033 33.304C106.63 33.6347 107.089 34.1147 107.409 34.744C107.739 35.3627 107.905 36.104 107.905 36.968C107.905 37.832 107.739 38.5787 107.409 39.208C107.089 39.8267 106.63 40.3067 106.033 40.648C105.446 40.9787 104.753 41.144 103.953 41.144ZM103.953 39.88C104.657 39.88 105.217 39.6347 105.633 39.144C106.049 38.6533 106.257 37.928 106.257 36.968C106.257 36.008 106.049 35.288 105.633 34.808C105.217 34.3173 104.657 34.072 103.953 34.072C103.259 34.072 102.705 34.3173 102.289 34.808C101.873 35.288 101.664 36.008 101.664 36.968C101.664 37.928 101.867 38.6533 102.273 39.144C102.689 39.6347 103.249 39.88 103.953 39.88ZM109.761 41V34.936C109.761 34.6053 109.751 34.2747 109.729 33.944C109.719 33.6027 109.697 33.2667 109.665 32.936H111.233L111.409 35.016H111.153C111.26 34.5147 111.441 34.0987 111.697 33.768C111.953 33.4373 112.263 33.192 112.625 33.032C112.999 32.872 113.388 32.792 113.793 32.792C113.964 32.792 114.108 32.8027 114.225 32.824C114.343 32.8347 114.46 32.856 114.577 32.888L114.561 34.328C114.38 34.2533 114.22 34.2107 114.081 34.2C113.953 34.1787 113.793 34.168 113.601 34.168C113.132 34.168 112.732 34.2747 112.401 34.488C112.071 34.6907 111.82 34.968 111.649 35.32C111.479 35.672 111.393 36.0507 111.393 36.456V41H109.761ZM123.626 41.144C122.816 41.144 122.106 40.9787 121.498 40.648C120.901 40.3067 120.437 39.8213 120.106 39.192C119.786 38.552 119.626 37.7947 119.626 36.92C119.626 36.056 119.792 35.3147 120.122 34.696C120.453 34.0773 120.917 33.608 121.514 33.288C122.112 32.9573 122.816 32.792 123.626 32.792C124.149 32.792 124.656 32.8827 125.146 33.064C125.637 33.2347 126.042 33.48 126.362 33.8L125.834 34.936C125.536 34.648 125.2 34.4347 124.826 34.296C124.453 34.1467 124.09 34.072 123.738 34.072C122.97 34.072 122.368 34.3173 121.93 34.808C121.493 35.2987 121.274 36.008 121.274 36.936C121.274 37.8747 121.493 38.5947 121.93 39.096C122.368 39.5973 122.97 39.848 123.738 39.848C124.08 39.848 124.437 39.784 124.81 39.656C125.184 39.5173 125.525 39.2987 125.834 39L126.362 40.136C126.032 40.456 125.616 40.7067 125.114 40.888C124.624 41.0587 124.128 41.144 123.626 41.144ZM131.374 41.144C130.574 41.144 129.881 40.9787 129.294 40.648C128.708 40.3067 128.254 39.8267 127.934 39.208C127.614 38.5787 127.454 37.832 127.454 36.968C127.454 36.104 127.614 35.3627 127.934 34.744C128.254 34.1147 128.708 33.6347 129.294 33.304C129.881 32.9627 130.574 32.792 131.374 32.792C132.174 32.792 132.868 32.9627 133.454 33.304C134.052 33.6347 134.51 34.1147 134.83 34.744C135.161 35.3627 135.326 36.104 135.326 36.968C135.326 37.832 135.161 38.5787 134.83 39.208C134.51 39.8267 134.052 40.3067 133.454 40.648C132.868 40.9787 132.174 41.144 131.374 41.144ZM131.374 39.88C132.078 39.88 132.638 39.6347 133.054 39.144C133.47 38.6533 133.678 37.928 133.678 36.968C133.678 36.008 133.47 35.288 133.054 34.808C132.638 34.3173 132.078 34.072 131.374 34.072C130.681 34.072 130.126 34.3173 129.71 34.808C129.294 35.288 129.086 36.008 129.086 36.968C129.086 37.928 129.289 38.6533 129.694 39.144C130.11 39.6347 130.67 39.88 131.374 39.88ZM140.671 41.144C139.871 41.144 139.178 40.9787 138.591 40.648C138.005 40.3067 137.551 39.8267 137.231 39.208C136.911 38.5787 136.751 37.832 136.751 36.968C136.751 36.104 136.911 35.3627 137.231 34.744C137.551 34.1147 138.005 33.6347 138.591 33.304C139.178 32.9627 139.871 32.792 140.671 32.792C141.471 32.792 142.165 32.9627 142.751 33.304C143.349 33.6347 143.807 34.1147 144.127 34.744C144.458 35.3627 144.623 36.104 144.623 36.968C144.623 37.832 144.458 38.5787 144.127 39.208C143.807 39.8267 143.349 40.3067 142.751 40.648C142.165 40.9787 141.471 41.144 140.671 41.144ZM140.671 39.88C141.375 39.88 141.935 39.6347 142.351 39.144C142.767 38.6533 142.975 37.928 142.975 36.968C142.975 36.008 142.767 35.288 142.351 34.808C141.935 34.3173 141.375 34.072 140.671 34.072C139.978 34.072 139.423 34.3173 139.007 34.808C138.591 35.288 138.383 36.008 138.383 36.968C138.383 37.928 138.586 38.6533 138.991 39.144C139.407 39.6347 139.967 39.88 140.671 39.88ZM146.48 41V34.936C146.48 34.6053 146.469 34.2747 146.448 33.944C146.437 33.6027 146.416 33.2667 146.384 32.936H147.952L148.128 35.016H147.872C147.979 34.5147 148.16 34.0987 148.416 33.768C148.672 33.4373 148.981 33.192 149.344 33.032C149.717 32.872 150.107 32.792 150.512 32.792C150.683 32.792 150.827 32.8027 150.944 32.824C151.061 32.8347 151.179 32.856 151.296 32.888L151.28 34.328C151.099 34.2533 150.939 34.2107 150.8 34.2C150.672 34.1787 150.512 34.168 150.32 34.168C149.851 34.168 149.451 34.2747 149.12 34.488C148.789 34.6907 148.539 34.968 148.368 35.32C148.197 35.672 148.112 36.0507 148.112 36.456V41H146.48ZM155.522 41.144C154.818 41.144 154.194 40.9787 153.65 40.648C153.117 40.3173 152.701 39.8373 152.402 39.208C152.114 38.5787 151.97 37.832 151.97 36.968C151.97 36.0933 152.114 35.3467 152.402 34.728C152.701 34.1093 153.117 33.6347 153.65 33.304C154.194 32.9627 154.818 32.792 155.522 32.792C156.215 32.792 156.823 32.968 157.346 33.32C157.879 33.6613 158.231 34.1307 158.402 34.728H158.21V29.224H159.826V41H158.226V39.176H158.418C158.237 39.784 157.885 40.264 157.362 40.616C156.839 40.968 156.226 41.144 155.522 41.144ZM155.922 39.88C156.615 39.88 157.175 39.6347 157.602 39.144C158.029 38.6533 158.242 37.928 158.242 36.968C158.242 36.008 158.029 35.288 157.602 34.808C157.175 34.3173 156.615 34.072 155.922 34.072C155.218 34.072 154.653 34.3173 154.226 34.808C153.81 35.288 153.602 36.008 153.602 36.968C153.602 37.928 153.81 38.6533 154.226 39.144C154.653 39.6347 155.218 39.88 155.922 39.88ZM165.912 41.144C164.611 41.144 163.587 40.776 162.84 40.04C162.093 39.304 161.72 38.2853 161.72 36.984C161.72 36.1413 161.88 35.4053 162.2 34.776C162.531 34.1467 162.984 33.6613 163.56 33.32C164.147 32.968 164.824 32.792 165.592 32.792C166.349 32.792 166.984 32.952 167.496 33.272C168.008 33.592 168.397 34.0453 168.664 34.632C168.931 35.208 169.064 35.8907 169.064 36.68V37.192H162.984V36.264H167.96L167.688 36.472C167.688 35.672 167.507 35.0533 167.144 34.616C166.792 34.168 166.28 33.944 165.608 33.944C164.861 33.944 164.285 34.2053 163.88 34.728C163.475 35.24 163.272 35.9493 163.272 36.856V37.016C163.272 37.9653 163.501 38.68 163.96 39.16C164.429 39.64 165.091 39.88 165.944 39.88C166.413 39.88 166.851 39.816 167.256 39.688C167.672 39.5493 168.067 39.3253 168.44 39.016L168.968 40.12C168.595 40.4507 168.141 40.7067 167.608 40.888C167.075 41.0587 166.509 41.144 165.912 41.144ZM170.918 41V34.872C170.918 34.5627 170.902 34.248 170.87 33.928C170.849 33.5973 170.822 33.2667 170.79 32.936H172.358L172.502 34.632H172.31C172.556 34.0347 172.934 33.5813 173.446 33.272C173.958 32.952 174.55 32.792 175.222 32.792C176.172 32.792 176.886 33.0533 177.366 33.576C177.857 34.0987 178.102 34.9093 178.102 36.008V41H176.486V36.104C176.486 35.3893 176.342 34.8773 176.054 34.568C175.777 34.248 175.35 34.088 174.774 34.088C174.092 34.088 173.548 34.3013 173.142 34.728C172.737 35.144 172.534 35.7093 172.534 36.424V41H170.918ZM183.491 41.144C182.776 41.144 182.152 40.9787 181.619 40.648C181.085 40.3173 180.669 39.8373 180.371 39.208C180.083 38.5787 179.939 37.832 179.939 36.968C179.939 36.0933 180.083 35.3467 180.371 34.728C180.669 34.1093 181.085 33.6347 181.619 33.304C182.152 32.9627 182.776 32.792 183.491 32.792C184.195 32.792 184.808 32.968 185.331 33.32C185.853 33.672 186.2 34.152 186.371 34.76H186.195L186.355 32.936H187.923C187.891 33.2667 187.859 33.5973 187.827 33.928C187.805 34.248 187.795 34.5627 187.795 34.872V41H186.179V39.208H186.355C186.184 39.8053 185.832 40.28 185.299 40.632C184.776 40.9733 184.173 41.144 183.491 41.144ZM183.891 39.88C184.584 39.88 185.139 39.6347 185.555 39.144C185.981 38.6533 186.195 37.928 186.195 36.968C186.195 36.008 185.981 35.288 185.555 34.808C185.139 34.3173 184.584 34.072 183.891 34.072C183.187 34.072 182.621 34.3173 182.195 34.808C181.779 35.288 181.571 36.008 181.571 36.968C181.571 37.928 181.779 38.6533 182.195 39.144C182.611 39.6347 183.176 39.88 183.891 39.88ZM193.241 41.144C192.537 41.144 191.913 40.9787 191.369 40.648C190.835 40.3173 190.419 39.8373 190.121 39.208C189.833 38.5787 189.689 37.832 189.689 36.968C189.689 36.0933 189.833 35.3467 190.121 34.728C190.419 34.1093 190.835 33.6347 191.369 33.304C191.913 32.9627 192.537 32.792 193.241 32.792C193.934 32.792 194.542 32.968 195.065 33.32C195.598 33.6613 195.95 34.1307 196.121 34.728H195.929V29.224H197.545V41H195.945V39.176H196.137C195.955 39.784 195.603 40.264 195.081 40.616C194.558 40.968 193.945 41.144 193.241 41.144ZM193.641 39.88C194.334 39.88 194.894 39.6347 195.321 39.144C195.747 38.6533 195.961 37.928 195.961 36.968C195.961 36.008 195.747 35.288 195.321 34.808C194.894 34.3173 194.334 34.072 193.641 34.072C192.937 34.072 192.371 34.3173 191.945 34.808C191.529 35.288 191.321 36.008 191.321 36.968C191.321 37.928 191.529 38.6533 191.945 39.144C192.371 39.6347 192.937 39.88 193.641 39.88ZM203.359 41.144C202.559 41.144 201.865 40.9787 201.279 40.648C200.692 40.3067 200.239 39.8267 199.919 39.208C199.599 38.5787 199.439 37.832 199.439 36.968C199.439 36.104 199.599 35.3627 199.919 34.744C200.239 34.1147 200.692 33.6347 201.279 33.304C201.865 32.9627 202.559 32.792 203.359 32.792C204.159 32.792 204.852 32.9627 205.439 33.304C206.036 33.6347 206.495 34.1147 206.815 34.744C207.145 35.3627 207.311 36.104 207.311 36.968C207.311 37.832 207.145 38.5787 206.815 39.208C206.495 39.8267 206.036 40.3067 205.439 40.648C204.852 40.9787 204.159 41.144 203.359 41.144ZM203.359 39.88C204.063 39.88 204.623 39.6347 205.039 39.144C205.455 38.6533 205.663 37.928 205.663 36.968C205.663 36.008 205.455 35.288 205.039 34.808C204.623 34.3173 204.063 34.072 203.359 34.072C202.665 34.072 202.111 34.3173 201.695 34.808C201.279 35.288 201.071 36.008 201.071 36.968C201.071 37.928 201.273 38.6533 201.679 39.144C202.095 39.6347 202.655 39.88 203.359 39.88ZM209.168 41V34.936C209.168 34.6053 209.157 34.2747 209.136 33.944C209.125 33.6027 209.104 33.2667 209.072 32.936H210.64L210.816 35.016H210.56C210.666 34.5147 210.848 34.0987 211.104 33.768C211.36 33.4373 211.669 33.192 212.032 33.032C212.405 32.872 212.794 32.792 213.2 32.792C213.37 32.792 213.514 32.8027 213.632 32.824C213.749 32.8347 213.866 32.856 213.984 32.888L213.968 34.328C213.786 34.2533 213.626 34.2107 213.488 34.2C213.36 34.1787 213.2 34.168 213.008 34.168C212.538 34.168 212.138 34.2747 211.808 34.488C211.477 34.6907 211.226 34.968 211.056 35.32C210.885 35.672 210.8 36.0507 210.8 36.456V41H209.168Z" fill="black"/>
<g clip-path="url(#clip0_292_366)">
<path d="M24 267H413" stroke="#CCCCCC" stroke-dasharray="3 3"/>
<path d="M24 200H413" stroke="#CCCCCC" stroke-dasharray="3 3"/>
<path d="M24 133H413" stroke="#CCCCCC" stroke-dasharray="3 3"/>
<path d="M24 66H413" stroke="#CCCCCC" stroke-dasharray="3 3"/>
<path d="M24 334H413" stroke="#CCCCCC" stroke-dasharray="3 3"/>
<path d="M56.4165 66V334" stroke="#CCCCCC" stroke-dasharray="3 3"/>
<path d="M121.25 66V334" stroke="#CCCCCC" stroke-dasharray="3 3"/>
<path d="M186.083 66V334" stroke="#CCCCCC" stroke-dasharray="3 3"/>
<path d="M250.917 66V334" stroke="#CCCCCC" stroke-dasharray="3 3"/>
<path d="M315.75 66V334" stroke="#CCCCCC" stroke-dasharray="3 3"/>
<path d="M380.583 66V334" stroke="#CCCCCC" stroke-dasharray="3 3"/>
<path d="M24 66V334" stroke="#CCCCCC" stroke-dasharray="3 3"/>
<path d="M413 66V334" stroke="#CCCCCC" stroke-dasharray="3 3"/>
<path d="M30.4834 255.61H55.1723V334H30.4834V255.61Z" fill="#003383"/>
<path d="M95.3169 260.3H120.006V334H95.3169V260.3Z" fill="#003383"/>
<path d="M160.15 99.5H184.839V334H160.15V99.5Z" fill="#003383"/>
<path d="M224.983 197.32H249.672V334H224.983V197.32Z" fill="#003383"/>
<path d="M289.817 180.235H314.506V334H289.817V180.235Z" fill="#003383"/>
<path d="M354.65 166.5H379.339V334H354.65V166.5Z" fill="#003383"/>
<path d="M57.5811 300.5H82.2699V334H57.5811V300.5Z" fill="#F0CE00"/>
<path d="M122.415 270.35H147.103V334H122.415V270.35Z" fill="#F0CE00"/>
<path d="M187.248 166.5H211.936V334H187.248V166.5Z" fill="#F0CE00"/>
<path d="M252.081 203.35H276.77V334H252.081V203.35Z" fill="#F0CE00"/>
<path d="M316.915 173.2H341.603V334H316.915V173.2Z" fill="#F0CE00"/>
<path d="M381.748 206.7H406.436V334H381.748V206.7Z" fill="#F0CE00"/>
</g>
<defs>
<clipPath id="clip0_292_366">
<rect width="389" height="268" fill="white" transform="translate(24 66)"/>
</clipPath>
</defs>
</svg>
