<svg width="165" height="86" viewBox="0 0 165 86" fill="none" xmlns="http://www.w3.org/2000/svg">
<g clip-path="url(#clip0_11_388)">
<g clip-path="url(#clip1_11_388)">
<g clip-path="url(#clip2_11_388)">
<path fill-rule="evenodd" clip-rule="evenodd" d="M6.32324 42.0067C11.0569 43.613 40.9313 45.6574 44.9471 45.1828L47.466 52.1312C41.3816 52.9952 7.72266 48.7604 6.32324 42.0067Z" fill="#003383"/>
<path fill-rule="evenodd" clip-rule="evenodd" d="M33.4473 84.0256V80.4723H35.6011V81.0808H34.08V81.9082H35.3943V82.5167H34.08V84.0256H33.4473ZM36.1122 80.4723H36.745V82.395C36.7335 82.5895 36.7335 82.7846 36.745 82.9791C36.7538 83.0506 36.7766 83.1196 36.8121 83.1822C36.8476 83.2449 36.8951 83.2999 36.9519 83.3442C37.0708 83.4329 37.2176 83.4761 37.3656 83.4659C37.4892 83.474 37.6123 83.4443 37.7185 83.3807C37.8126 83.3223 37.882 83.2314 37.9132 83.1251C37.9417 82.8948 37.9417 82.6618 37.9132 82.4315V80.4723H38.546V82.3342C38.5604 82.6811 38.5318 83.0286 38.4608 83.3685C38.4368 83.4736 38.3921 83.5729 38.3295 83.6606C38.2668 83.7483 38.1874 83.8228 38.0958 83.8796C37.8673 84.0252 37.5998 84.0974 37.3291 84.0865C37.0915 84.1016 36.8537 84.0599 36.6355 83.9648C36.4536 83.86 36.3122 83.6971 36.2339 83.5024C36.1365 83.15 36.0955 82.7845 36.1122 82.4193V80.4723ZM39.3005 84.0256V80.4723H39.9089L41.1988 82.9061V80.4723H41.7829V84.0256H41.1501L39.9332 81.7135V84.0256H39.3005ZM42.4522 80.4723H43.6082C43.8314 80.4632 44.0544 80.4962 44.2653 80.5697C44.4277 80.6327 44.5705 80.7377 44.6791 80.8739C44.8208 81.0356 44.9247 81.2268 44.9833 81.4337C45.0521 81.7123 45.0849 81.9985 45.0807 82.2855C45.0853 82.5572 45.0484 82.8281 44.9711 83.0886C44.9105 83.2823 44.8157 83.4637 44.6913 83.6241C44.5763 83.7558 44.4297 83.8563 44.2653 83.9161C44.0686 83.9962 43.857 84.0336 43.6447 84.0256H42.4279V80.4723H42.4522ZM43.085 81.0808V83.4172H43.5596C43.7044 83.4437 43.8528 83.4437 43.9976 83.4172C44.0876 83.3864 44.1676 83.3317 44.2288 83.259C44.303 83.1581 44.353 83.0415 44.3749 82.9183C44.4384 82.5151 44.4384 82.1045 44.3749 81.7014C44.3392 81.5687 44.2771 81.4445 44.1923 81.3363C44.1106 81.2499 44.0045 81.1904 43.8881 81.1659C43.7181 81.1496 43.547 81.1496 43.377 81.1659L43.085 81.0808ZM48.4514 84.0256H47.7578L47.4657 83.2103H46.2489L45.9933 84.0256H45.3119L46.5287 80.4723H47.198L48.4149 84.0256H48.4514ZM47.2345 82.614L46.8086 81.2998L46.3827 82.614H47.2345ZM50.7513 82.7114L51.3598 82.9426C51.3019 83.2753 51.1349 83.5793 50.8852 83.8066C50.6187 84.0136 50.2838 84.1124 49.9476 84.0831C49.6114 84.0537 49.2986 83.8985 49.072 83.6484C48.7819 83.256 48.6435 82.7719 48.6826 82.2855C48.6514 81.7735 48.807 81.2676 49.1207 80.8617C49.244 80.7088 49.4024 80.5879 49.5825 80.5095C49.7627 80.4311 49.9591 80.3975 50.155 80.4115C50.3164 80.4073 50.4769 80.4353 50.6274 80.4938C50.7778 80.5523 50.9151 80.6402 51.0312 80.7522C51.2207 80.9474 51.3515 81.192 51.4084 81.458L50.7757 81.6162C50.7437 81.4505 50.6632 81.298 50.5444 81.1781C50.3938 81.0651 50.2048 81.0158 50.0181 81.0408C49.8315 81.0659 49.6621 81.1633 49.5466 81.312C49.3751 81.5883 49.2982 81.9129 49.3276 82.2368C49.2989 82.5684 49.3756 82.9005 49.5466 83.186C49.6093 83.2755 49.6933 83.348 49.791 83.3968C49.8888 83.4457 49.9972 83.4694 50.1064 83.4659C50.2646 83.4643 50.4166 83.4035 50.5323 83.2955C50.6779 83.1319 50.7712 82.9285 50.8 82.7114H50.7513ZM49.4371 85.0235C49.5745 85.0403 49.7134 85.0403 49.8508 85.0235C50.0482 85.0359 50.2444 84.9847 50.4106 84.8774C50.4708 84.8347 50.5199 84.7781 50.5538 84.7125C50.5877 84.6469 50.6053 84.5741 50.6053 84.5002C50.6072 84.438 50.5951 84.3761 50.5698 84.3192C50.5445 84.2623 50.5068 84.2119 50.4593 84.1716C50.3463 84.0794 50.2034 84.0318 50.0577 84.0378C49.9322 84.0361 49.8078 84.061 49.6926 84.1108V84.342C49.7856 84.3304 49.8796 84.3304 49.9725 84.342C50.0357 84.3207 50.1041 84.3207 50.1672 84.342C50.1906 84.3583 50.2096 84.3802 50.2224 84.4057C50.2351 84.4312 50.2413 84.4595 50.2402 84.488C50.2418 84.5214 50.2348 84.5545 50.2199 84.5843C50.205 84.6142 50.1826 84.6397 50.155 84.6584C50.0674 84.6822 49.975 84.6822 49.8873 84.6584H49.4858V84.9383L49.4371 85.0235ZM54.767 84.0256H54.0734L53.7935 83.2103H52.5766L52.3211 84.0256H51.6518L52.8687 80.4723H53.5501L54.767 84.0256ZM53.5501 82.614L53.1121 81.2998L52.6862 82.614H53.5501ZM52.6497 80.1803H52.455V80.1073C52.4431 79.9647 52.4819 79.8225 52.5645 79.7057C52.5965 79.6621 52.6388 79.627 52.6876 79.6037C52.7364 79.5803 52.7903 79.5694 52.8444 79.5718H52.9904L53.1972 79.6692C53.2832 79.7198 53.3783 79.7529 53.4771 79.7665C53.5866 79.7665 53.6353 79.6935 53.6597 79.5475H53.9395C53.9409 79.7121 53.9034 79.8747 53.83 80.0221C53.798 80.0657 53.7557 80.1008 53.7069 80.1241C53.6581 80.1475 53.6042 80.1584 53.5501 80.1559H53.4163L53.1851 80.0708C53.0919 80.0166 52.9881 79.9834 52.8809 79.9734C52.8639 79.9648 52.8451 79.9604 52.8261 79.9604C52.8071 79.9604 52.7883 79.9648 52.7713 79.9734C52.7589 80.0254 52.7589 80.0796 52.7713 80.1316L52.6497 80.1803ZM54.9252 82.249C54.9096 81.8899 54.9762 81.5319 55.1199 81.2025C55.2341 80.9495 55.4215 80.7365 55.658 80.5912C55.8944 80.4458 56.169 80.3748 56.4463 80.3871C56.6527 80.3797 56.8581 80.4185 57.0476 80.5006C57.237 80.5827 57.4058 80.7061 57.5415 80.8617C57.8188 81.2667 57.9672 81.746 57.9672 82.2368C57.9672 82.7276 57.8188 83.2069 57.5415 83.6119C57.4013 83.7532 57.2344 83.8653 57.0506 83.9418C56.8669 84.0183 56.6697 84.0577 56.4707 84.0577C56.2716 84.0577 56.0745 84.0183 55.8907 83.9418C55.7069 83.8653 55.5401 83.7532 55.3998 83.6119C55.0809 83.2272 54.9199 82.7357 54.9496 82.2368L54.9252 82.249ZM55.5702 82.249C55.5476 82.5735 55.6379 82.896 55.8257 83.1616C55.8981 83.2574 55.992 83.3348 56.0998 83.3877C56.2076 83.4405 56.3263 83.4673 56.4463 83.4659C56.5667 83.4693 56.6861 83.4434 56.7942 83.3904C56.9023 83.3374 56.9959 83.2589 57.0669 83.1616C57.2541 82.8915 57.3403 82.5641 57.3103 82.2368C57.338 81.9152 57.2565 81.5937 57.0791 81.3241C57.0036 81.2297 56.907 81.1541 56.7972 81.1034C56.6874 81.0527 56.5672 81.0283 56.4463 81.0321C56.3257 81.0301 56.2062 81.0553 56.0966 81.1059C55.9871 81.1565 55.8903 81.2311 55.8135 81.3241C55.6318 81.5968 55.5461 81.9222 55.5702 82.249ZM60.2917 80.4723H61.4477C61.6709 80.4632 61.8938 80.4962 62.1048 80.5697C62.2672 80.6327 62.4099 80.7377 62.5186 80.8739C62.6603 81.0356 62.7642 81.2268 62.8228 81.4337C62.8916 81.7123 62.9243 81.9985 62.9201 82.2855C62.9248 82.5572 62.8879 82.8281 62.8106 83.0886C62.75 83.2823 62.6552 83.4637 62.5307 83.6241C62.4157 83.7558 62.2692 83.8563 62.1048 83.9161C61.9081 83.9962 61.6965 84.0336 61.4842 84.0256H60.2673V80.4723H60.2917ZM60.9244 81.0808V83.4172H61.399C61.5439 83.4437 61.6923 83.4437 61.8371 83.4172C61.9271 83.3864 62.0071 83.3317 62.0683 83.259C62.1425 83.1581 62.1925 83.0415 62.2143 82.9183C62.2779 82.5151 62.2779 82.1045 62.2143 81.7014C62.1787 81.5687 62.1166 81.4445 62.0318 81.3363C61.9501 81.2499 61.844 81.1904 61.7276 81.1659C61.5536 81.1493 61.3784 81.1493 61.2043 81.1659L60.9244 81.0808ZM63.4677 84.0256V80.4723H65.792V81.0808H64.1735V81.8596H65.719V82.4558H64.1735V83.4172H65.9258V84.0256H63.4677ZM70.8907 84.0256H70.1971L69.9294 83.2103H68.7125L68.4448 84.0256H67.7755L68.9924 80.4723H69.6738L70.8907 84.0256ZM69.6738 82.614L69.3696 81.2998L68.9437 82.614H69.6738ZM71.1706 84.0256V80.4723H72.1928C72.4397 80.4499 72.6881 80.4499 72.9351 80.4723C73.1244 80.5347 73.2873 80.659 73.3975 80.8252C73.5266 81.0328 73.5902 81.2745 73.58 81.5188C73.5881 81.7443 73.5333 81.9676 73.4218 82.1638C73.3338 82.3235 73.1975 82.4513 73.0324 82.5289C72.7704 82.6183 72.4934 82.6555 72.2171 82.6384H71.925V83.9769L71.1706 84.0256ZM71.8034 81.0808V82.0786H72.1563C72.3133 82.1052 72.4738 82.1052 72.6308 82.0786C72.7164 82.0521 72.7897 81.996 72.8377 81.9204C72.8959 81.8738 72.9427 81.8145 72.9743 81.747C73.006 81.6795 73.0217 81.6056 73.0202 81.531C73.0256 81.4231 72.9957 81.3163 72.9351 81.2268C72.8871 81.1512 72.8137 81.0951 72.7282 81.0686C72.5584 81.0487 72.3869 81.0487 72.2171 81.0686L71.8034 81.0808ZM73.9694 82.2976C73.9572 81.9376 74.028 81.5795 74.1763 81.2511C74.2902 80.9995 74.4766 80.7877 74.7117 80.6427C74.9498 80.4985 75.2246 80.4267 75.5027 80.4358C75.709 80.4284 75.9145 80.4672 76.1039 80.5493C76.2934 80.6314 76.4622 80.7548 76.5979 80.9104C76.8752 81.3154 77.0236 81.7947 77.0236 82.2855C77.0236 82.7763 76.8752 83.2556 76.5979 83.6606C76.3109 83.9437 75.924 84.1024 75.5209 84.1024C75.1178 84.1024 74.7309 83.9437 74.444 83.6606C74.1303 83.273 73.97 82.7836 73.9937 82.2855L73.9694 82.2976ZM74.6265 82.2976C74.604 82.6222 74.6943 82.9446 74.8821 83.2103C74.9531 83.3075 75.0467 83.3861 75.1548 83.4391C75.2629 83.4921 75.3823 83.518 75.5027 83.5145C75.6227 83.516 75.7414 83.4892 75.8492 83.4363C75.957 83.3835 76.0509 83.3061 76.1233 83.2103C76.3051 82.9377 76.3907 82.6123 76.3667 82.2855C76.3908 81.9625 76.305 81.6409 76.1233 81.3728C76.0496 81.2793 75.9552 81.2042 75.8475 81.1535C75.7397 81.1028 75.6217 81.0779 75.5027 81.0808C75.3818 81.077 75.2616 81.1014 75.1518 81.1521C75.042 81.2028 74.9454 81.2783 74.8699 81.3728C74.6881 81.6454 74.6025 81.9709 74.6265 82.2976ZM77.4984 84.0743V80.4723H78.1311V84.0256L77.4984 84.0743ZM78.6057 82.322C78.5935 81.9619 78.6643 81.6038 78.8126 81.2755C78.9262 81.0274 79.1076 80.8165 79.3359 80.667C79.5752 80.526 79.8491 80.4544 80.1268 80.4602C80.3348 80.4543 80.5415 80.4937 80.7327 80.5757C80.9239 80.6576 81.095 80.7801 81.2342 80.9347C81.5115 81.3397 81.6599 81.819 81.6599 82.3098C81.6599 82.8006 81.5115 83.2799 81.2342 83.6849C80.9473 83.968 80.5604 84.1268 80.1572 84.1268C79.7541 84.1268 79.3673 83.968 79.0803 83.6849C78.7666 83.2973 78.6064 82.8079 78.6301 82.3098L78.6057 82.322ZM79.2628 82.322C79.2403 82.6466 79.3306 82.969 79.5184 83.2346C79.5894 83.3319 79.683 83.4104 79.7911 83.4634C79.8992 83.5164 80.0186 83.5423 80.139 83.5389C80.259 83.5403 80.3777 83.5135 80.4855 83.4607C80.5933 83.4078 80.6872 83.3304 80.7596 83.2346C80.9414 82.962 81.027 82.6366 81.003 82.3098C81.0271 81.9869 80.9413 81.6652 80.7596 81.3972C80.6859 81.3036 80.5915 81.2285 80.4838 81.1779C80.3761 81.1272 80.258 81.1023 80.139 81.1051C80.0181 81.1013 79.898 81.1257 79.7881 81.1764C79.6783 81.2271 79.5818 81.3027 79.5062 81.3972C79.3245 81.6698 79.2388 81.9952 79.2628 82.322ZM86.8075 84.0986H86.1261L85.8462 83.2833H84.6293L84.3737 84.0986H83.6923L84.9092 80.5453H85.5785L86.7953 84.0986H86.8075ZM85.5906 82.687L85.1647 81.3728L84.7388 82.687H85.5906ZM85.5176 80.2533H85.3107L84.7145 79.5232H85.3959L85.688 80.2533H85.5176ZM88.9249 84.0378V80.4723H89.9471C90.194 80.4499 90.4424 80.4499 90.6894 80.4723C90.877 80.5379 91.039 80.6615 91.1518 80.8252C91.2809 81.0328 91.3445 81.2745 91.3343 81.5188C91.3424 81.7443 91.2876 81.9676 91.1761 82.1638C91.0881 82.3235 90.9518 82.4513 90.7867 82.5289C90.5247 82.6183 90.2477 82.6555 89.9714 82.6384H89.5577V83.9769L88.9249 84.0378ZM89.5577 81.0929V82.0908H90.0566C90.2137 82.1173 90.3741 82.1173 90.5312 82.0908C90.6167 82.0643 90.69 82.0082 90.738 81.9326C90.7969 81.8468 90.8268 81.7445 90.8232 81.6405C90.8285 81.5326 90.7986 81.4258 90.738 81.3363C90.69 81.2607 90.6167 81.2046 90.5312 81.1781C90.3573 81.1584 90.1818 81.1584 90.0079 81.1781L89.5577 81.0929ZM91.8576 84.0378V80.4723H94.1818V81.0808H92.6607V81.8596H94.2427V82.4558H92.6607V83.4172H94.413V84.0256L91.8576 84.0378ZM94.6199 82.8209L95.4109 82.7479C95.4839 83.1981 95.7029 83.4293 96.0923 83.4293C96.2533 83.4374 96.4122 83.3902 96.5426 83.2955C96.5957 83.2533 96.6386 83.1997 96.6681 83.1386C96.6977 83.0774 96.713 83.0105 96.7129 82.9426C96.7304 82.8748 96.7304 82.8036 96.7129 82.7357C96.6669 82.6789 96.6087 82.6331 96.5426 82.6019L95.9706 82.4193C95.7603 82.3702 95.559 82.2881 95.3744 82.176C95.2519 82.0816 95.1521 81.961 95.0823 81.8231C95.0014 81.6825 94.9594 81.5229 94.9606 81.3607C94.9586 81.1759 95.0093 80.9944 95.1066 80.8374C95.1985 80.6837 95.334 80.5608 95.496 80.4845C95.6925 80.4022 95.9037 80.3608 96.1167 80.3628C96.43 80.3411 96.7396 80.4414 96.9806 80.6427C97.0884 80.7462 97.1733 80.8712 97.2299 81.0095C97.2865 81.1478 97.3135 81.2964 97.3092 81.4458H96.6764C96.679 81.3727 96.6654 81.2999 96.6367 81.2325C96.608 81.1652 96.5648 81.105 96.5103 81.0562C96.4557 81.0075 96.391 80.9713 96.3209 80.9503C96.2508 80.9293 96.1769 80.924 96.1045 80.9347C95.9679 80.9274 95.8322 80.9613 95.7151 81.0321C95.6721 81.0565 95.6363 81.0919 95.6114 81.1347C95.5865 81.1774 95.5734 81.226 95.5734 81.2755C95.5734 81.3249 95.5865 81.3735 95.6114 81.4163C95.6363 81.459 95.6721 81.4944 95.7151 81.5188C95.8876 81.6325 96.0827 81.7072 96.287 81.7379C96.5313 81.7949 96.7652 81.8893 96.9806 82.0178C97.1199 82.109 97.2331 82.2347 97.3092 82.3828C97.3858 82.5507 97.4233 82.7338 97.4187 82.9183C97.4217 83.2074 97.3127 83.4865 97.1145 83.6971C96.8485 83.9254 96.5028 84.0392 96.1532 84.0135C95.9873 84.0234 95.8212 83.9993 95.665 83.9427C95.5089 83.886 95.3659 83.7979 95.2451 83.6839C95.1242 83.5699 95.028 83.4324 94.9624 83.2798C94.8967 83.1271 94.863 82.9627 94.8633 82.7966L94.6199 82.8209ZM100.23 83.5267C100.386 83.6471 100.558 83.7454 100.741 83.8187L100.51 84.3298C100.412 84.2953 100.318 84.2504 100.23 84.196L99.9742 83.9648C99.7537 84.0697 99.5125 84.1237 99.2684 84.123C99.0603 84.1296 98.8533 84.0906 98.662 84.0086C98.4707 83.9266 98.2997 83.8036 98.161 83.6484C97.8642 83.2584 97.7174 82.7747 97.7473 82.2855C97.7151 81.7941 97.8669 81.3082 98.1732 80.9226C98.3152 80.7735 98.4861 80.6548 98.6754 80.5737C98.8647 80.4926 99.0685 80.4507 99.2745 80.4507C99.4804 80.4507 99.6842 80.4926 99.8735 80.5737C100.063 80.6548 100.234 80.7735 100.376 80.9226C100.678 81.31 100.825 81.7956 100.789 82.2855C100.796 82.5357 100.768 82.7856 100.704 83.0278C100.632 83.2365 100.53 83.4333 100.4 83.6119L100.23 83.5267ZM99.7186 83.113C99.9021 82.8457 99.9881 82.5234 99.962 82.2003C99.9899 81.8732 99.904 81.5465 99.7186 81.2755C99.6432 81.188 99.5498 81.1178 99.4448 81.0696C99.3398 81.0215 99.2257 80.9966 99.1102 80.9966C98.9947 80.9966 98.8805 81.0215 98.7755 81.0696C98.6705 81.1178 98.5771 81.188 98.5017 81.2755C98.3164 81.5465 98.2304 81.8732 98.2584 82.2003C98.2306 82.5312 98.3164 82.8617 98.5017 83.1373C98.5729 83.2314 98.6648 83.3078 98.7704 83.3606C98.8759 83.4134 98.9922 83.441 99.1102 83.4415C99.195 83.453 99.2809 83.453 99.3657 83.4415C99.2455 83.3494 99.1148 83.2718 98.9763 83.2103L99.1467 82.8087C99.367 82.8855 99.5697 83.0055 99.743 83.1616L99.7186 83.113ZM101.118 80.4236H101.751V82.3463C101.733 82.5406 101.733 82.7361 101.751 82.9304C101.757 83.0012 101.778 83.0698 101.811 83.1325C101.845 83.1952 101.89 83.2506 101.946 83.2955C102.065 83.3823 102.211 83.4253 102.359 83.4172C102.487 83.4235 102.613 83.394 102.724 83.332C102.811 83.2687 102.875 83.1791 102.907 83.0764C102.935 82.8461 102.935 82.6132 102.907 82.3828V80.4723H103.552V82.3342C103.56 82.681 103.532 83.0277 103.467 83.3685C103.409 83.5801 103.275 83.7624 103.089 83.8796C102.868 84.0297 102.602 84.1024 102.335 84.0865C102.069 84.0989 101.804 84.0401 101.568 83.9161C101.386 83.8113 101.245 83.6485 101.167 83.4537C101.063 83.1026 101.022 82.736 101.045 82.3707V80.4723L101.118 80.4236ZM104.27 83.9769V80.4723H104.903V84.0256L104.27 83.9769ZM105.353 82.7601L105.961 82.687C106.034 83.1373 106.265 83.3685 106.655 83.3685C106.816 83.3747 106.974 83.3276 107.105 83.2346C107.157 83.1919 107.198 83.1378 107.225 83.0766C107.253 83.0154 107.266 82.9488 107.263 82.8818C107.281 82.814 107.281 82.7427 107.263 82.6749C107.212 82.618 107.15 82.5724 107.081 82.541C106.894 82.4678 106.703 82.4068 106.509 82.3585C106.302 82.3098 106.105 82.2276 105.925 82.1151C105.796 82.0246 105.691 81.9033 105.62 81.7622C105.549 81.6187 105.511 81.4604 105.511 81.2998C105.509 81.1151 105.56 80.9336 105.657 80.7765C105.743 80.618 105.88 80.4935 106.046 80.4236C106.243 80.3414 106.454 80.3 106.667 80.302C106.98 80.2803 107.29 80.3806 107.531 80.5818C107.639 80.6854 107.724 80.8103 107.78 80.9486C107.837 81.087 107.864 81.2356 107.86 81.385H107.227C107.22 81.2327 107.154 81.089 107.044 80.9834C106.93 80.9045 106.793 80.8659 106.655 80.8739C106.515 80.8683 106.375 80.9021 106.253 80.9712C106.214 80.999 106.181 81.0353 106.158 81.0775C106.135 81.1196 106.122 81.1665 106.119 81.2146C106.117 81.2622 106.127 81.3095 106.149 81.3521C106.17 81.3947 106.202 81.4311 106.241 81.458C106.42 81.5685 106.618 81.6429 106.825 81.677C107.066 81.7314 107.297 81.826 107.507 81.9569C107.652 82.0413 107.767 82.169 107.835 82.322C107.912 82.4899 107.949 82.6729 107.945 82.8574C107.95 83.0011 107.925 83.1442 107.873 83.2781C107.82 83.412 107.741 83.5339 107.641 83.6362C107.51 83.7505 107.357 83.8373 107.192 83.8916C107.027 83.946 106.852 83.9667 106.679 83.9526C106.514 83.9609 106.35 83.9355 106.195 83.878C106.04 83.8206 105.899 83.7323 105.779 83.6184C105.66 83.5046 105.564 83.3677 105.5 83.2159C105.435 83.0642 105.401 82.9008 105.401 82.7357L105.353 82.7601ZM111.267 83.9769H110.744L110.476 83.1616H109.259L108.991 83.9769H108.31L109.527 80.4236H110.208L111.425 83.9769H111.267ZM110.05 82.5654L109.612 81.2511L109.186 82.5654H110.05ZM113.214 80.4236H114.431C114.658 80.4147 114.885 80.4477 115.1 80.521C115.258 80.5918 115.399 80.6955 115.514 80.8252C115.647 80.9908 115.746 81.181 115.806 81.385C115.885 81.6617 115.922 81.949 115.915 82.2368C115.92 82.5085 115.883 82.7794 115.806 83.0399C115.741 83.2345 115.643 83.4159 115.514 83.5754C115.404 83.7071 115.261 83.8078 115.1 83.8674C114.899 83.9465 114.683 83.9837 114.467 83.9769H113.25V80.4723L113.214 80.4236ZM113.847 81.0321V83.3685H114.321C114.47 83.393 114.622 83.393 114.771 83.3685C114.856 83.3345 114.931 83.2801 114.99 83.2103C115.065 83.1095 115.115 82.9929 115.137 82.8696C115.16 82.6674 115.16 82.4633 115.137 82.2611C115.161 82.055 115.161 81.8467 115.137 81.6405C115.111 81.5042 115.048 81.3777 114.954 81.2755C114.872 81.189 114.766 81.1296 114.65 81.1051C114.48 81.0879 114.309 81.0879 114.139 81.1051L113.847 81.0321ZM116.39 83.9769V80.4723H118.726V81.0808H117.023V81.8596H118.605V82.4558H117.023V83.4172H118.775V84.0256L116.39 83.9769ZM121.148 83.9769V80.4723H122.158C122.409 80.4501 122.661 80.4501 122.912 80.4723C123.097 80.5379 123.255 80.6618 123.363 80.8252C123.492 81.0328 123.555 81.2745 123.545 81.5188C123.553 81.7443 123.498 81.9676 123.387 82.1638C123.299 82.3235 123.163 82.4513 122.998 82.5289C122.74 82.6173 122.467 82.6546 122.194 82.6384H121.781V83.9769H121.148ZM121.781 81.0321V82.0299H122.121C122.283 82.0572 122.447 82.0572 122.608 82.0299C122.692 81.9994 122.764 81.9442 122.815 81.8717C122.864 81.7824 122.89 81.6817 122.888 81.5797C122.891 81.4736 122.866 81.3686 122.815 81.2755C122.761 81.2054 122.69 81.1508 122.608 81.1173C122.434 81.0976 122.259 81.0976 122.085 81.1173L121.781 81.0321ZM123.947 82.249C123.931 81.8899 123.998 81.5319 124.141 81.2025C124.255 80.9509 124.442 80.739 124.677 80.594C124.916 80.4518 125.19 80.38 125.468 80.3871C125.674 80.3797 125.88 80.4185 126.069 80.5006C126.259 80.5827 126.427 80.7061 126.563 80.8617C126.865 81.2496 127.016 81.7338 126.989 82.2246C127.023 82.7278 126.862 83.2246 126.539 83.6119C126.398 83.7532 126.232 83.8653 126.048 83.9418C125.864 84.0183 125.667 84.0577 125.468 84.0577C125.269 84.0577 125.072 84.0183 124.888 83.9418C124.704 83.8653 124.537 83.7532 124.397 83.6119C124.078 83.2272 123.917 82.7357 123.947 82.2368V82.249ZM124.592 82.249C124.569 82.5735 124.659 82.896 124.847 83.1616C124.92 83.2574 125.014 83.3348 125.121 83.3877C125.229 83.4405 125.348 83.4673 125.468 83.4659C125.588 83.4693 125.708 83.4434 125.816 83.3904C125.924 83.3374 126.017 83.2589 126.088 83.1616C126.276 82.8915 126.362 82.5641 126.332 82.2368C126.36 81.9152 126.278 81.5937 126.101 81.3241C126.023 81.2401 125.929 81.173 125.824 81.1271C125.72 81.0812 125.606 81.0575 125.492 81.0575C125.378 81.0575 125.265 81.0812 125.16 81.1271C125.055 81.173 124.961 81.2401 124.884 81.3241C124.702 81.5968 124.616 81.9222 124.64 82.249H124.592ZM125.139 80.2411L125.431 79.511H126.113L125.517 80.2411H125.139ZM127.33 82.8696L127.938 82.7966C128.011 83.2468 128.242 83.478 128.632 83.478C128.792 83.4842 128.951 83.4372 129.082 83.3442C129.134 83.3014 129.175 83.2473 129.202 83.1861C129.23 83.1249 129.243 83.0583 129.24 82.9913C129.258 82.9235 129.258 82.8522 129.24 82.7844C129.192 82.725 129.129 82.6789 129.058 82.6505C128.875 82.5785 128.688 82.5175 128.498 82.468C128.287 82.4212 128.085 82.3389 127.902 82.2246C127.772 82.1341 127.668 82.0128 127.597 81.8717C127.525 81.7282 127.488 81.5699 127.488 81.4093C127.486 81.2246 127.537 81.0431 127.634 80.8861C127.723 80.7298 127.859 80.6061 128.023 80.5332C128.22 80.4509 128.431 80.4095 128.644 80.4115C128.957 80.3898 129.267 80.4901 129.508 80.6914C129.616 80.7949 129.701 80.9198 129.757 81.0582C129.814 81.1965 129.841 81.3451 129.836 81.4945H129.204C129.196 81.3422 129.131 81.1985 129.021 81.0929C128.907 81.014 128.77 80.9754 128.632 80.9834C128.491 80.9779 128.352 81.0116 128.23 81.0808C128.191 81.1085 128.158 81.1448 128.135 81.187C128.112 81.2292 128.099 81.2761 128.096 81.3241C128.094 81.3717 128.104 81.419 128.126 81.4616C128.147 81.5042 128.179 81.5407 128.218 81.5675C128.396 81.678 128.595 81.7524 128.802 81.7866C129.043 81.8409 129.274 81.9356 129.484 82.0664C129.628 82.1508 129.743 82.2785 129.812 82.4315C129.889 82.5994 129.926 82.7825 129.922 82.9669C129.926 83.1106 129.902 83.2537 129.85 83.3876C129.797 83.5215 129.718 83.6434 129.617 83.7457C129.486 83.86 129.334 83.9468 129.169 84.0012C129.004 84.0555 128.829 84.0762 128.656 84.0621C128.333 84.0621 128.024 83.9339 127.796 83.7057C127.567 83.4775 127.439 83.168 127.439 82.8452L127.33 82.8696ZM130.226 83.0764V82.395H131.443V83.0764H130.226ZM133.329 82.7114V82.1151H134.704V83.5267C134.538 83.6946 134.339 83.827 134.12 83.9161C133.879 84.0244 133.618 84.0823 133.353 84.0865C133.066 84.0925 132.783 84.0165 132.538 83.8674C132.289 83.7181 132.089 83.4978 131.966 83.2346C131.824 82.9258 131.753 82.5889 131.759 82.249C131.749 81.8995 131.824 81.5527 131.978 81.239C132.092 80.9841 132.278 80.7683 132.514 80.6184C132.758 80.4792 133.035 80.4078 133.317 80.4115C133.642 80.4 133.962 80.4939 134.229 80.6792C134.464 80.8759 134.616 81.154 134.655 81.458L134.035 81.5919C133.998 81.4231 133.903 81.2724 133.767 81.1659C133.635 81.0746 133.477 81.0277 133.317 81.0321C133.195 81.0277 133.074 81.0505 132.963 81.0989C132.851 81.1474 132.752 81.2202 132.672 81.312C132.482 81.5721 132.391 81.8914 132.416 82.2125C132.392 82.558 132.486 82.9014 132.684 83.186C132.761 83.2775 132.858 83.3503 132.968 83.3988C133.078 83.4473 133.197 83.4702 133.317 83.4659C133.45 83.4629 133.581 83.4383 133.706 83.3928C133.835 83.3346 133.954 83.2565 134.059 83.1616V82.7479L133.329 82.7114ZM135.288 84.0256V80.4723H136.627C136.874 80.4603 137.121 80.4933 137.357 80.5697C137.509 80.6344 137.634 80.7507 137.71 80.8982C137.81 81.0717 137.861 81.2697 137.856 81.4702C137.873 81.7098 137.796 81.9466 137.642 82.1305C137.487 82.3145 137.267 82.4312 137.028 82.4558C137.152 82.5404 137.266 82.6383 137.369 82.7479C137.503 82.9346 137.625 83.1297 137.734 83.332L138.111 84.0256H137.357L136.894 83.2468C136.79 83.0663 136.677 82.8916 136.554 82.7236C136.506 82.6608 136.443 82.6107 136.371 82.5775C136.266 82.5611 136.16 82.5611 136.055 82.5775H135.921V84.0621L135.288 84.0256ZM135.921 81.9691H136.395C136.578 81.9803 136.761 81.9803 136.943 81.9691C137.019 81.9426 137.083 81.8911 137.126 81.8231C137.177 81.739 137.202 81.6416 137.199 81.5432C137.204 81.4446 137.178 81.3467 137.126 81.2633C137.077 81.199 137.008 81.1521 136.931 81.1294C136.761 81.1101 136.59 81.1101 136.42 81.1294H135.921V82.0178V81.9691ZM141.287 84.0256H140.594L140.314 83.2103H139.097L138.841 84.0256H138.172L139.389 80.4723H140.058L141.275 84.0256H141.287ZM140.07 82.614L139.949 81.2998L139.523 82.614H140.07ZM141.567 80.4723H142.784C143.011 80.4645 143.238 80.4974 143.453 80.5697C143.61 80.6364 143.748 80.7409 143.855 80.8739C143.997 81.0356 144.101 81.2268 144.159 81.4337C144.234 81.7111 144.267 81.9983 144.256 82.2855C144.261 82.5572 144.224 82.8281 144.147 83.0886C144.086 83.2823 143.992 83.4637 143.867 83.6241C143.755 83.7531 143.613 83.8532 143.453 83.9161C143.252 83.9952 143.037 84.0324 142.821 84.0256H141.604V80.4723H141.567ZM142.2 81.0808V83.4172H142.675C142.819 83.4437 142.968 83.4437 143.113 83.4172C143.203 83.3864 143.283 83.3317 143.344 83.259C143.418 83.1581 143.468 83.0415 143.49 82.9183C143.533 82.7184 143.554 82.5143 143.551 82.3098C143.555 82.1013 143.535 81.8929 143.49 81.6892C143.454 81.5565 143.392 81.4323 143.307 81.3241C143.226 81.2377 143.119 81.1783 143.003 81.1538C142.833 81.137 142.662 81.137 142.492 81.1538L142.2 81.0808ZM144.731 80.4723H145.364V82.395C145.352 82.5895 145.352 82.7846 145.364 82.9791C145.383 83.1201 145.452 83.2496 145.559 83.3442C145.682 83.4328 145.833 83.4758 145.984 83.4659C146.108 83.4725 146.231 83.4429 146.337 83.3807C146.431 83.3223 146.501 83.2314 146.532 83.1251C146.554 82.8944 146.554 82.6622 146.532 82.4315V80.4723H147.165V82.3342C147.179 82.6811 147.151 83.0286 147.08 83.3685C147.056 83.4736 147.011 83.5729 146.948 83.6606C146.886 83.7483 146.806 83.8228 146.715 83.8796C146.486 84.0252 146.219 84.0974 145.948 84.0865C145.682 84.0989 145.417 84.0401 145.181 83.9161C144.999 83.8113 144.858 83.6485 144.78 83.4537C144.676 83.1026 144.635 82.736 144.658 82.3707V80.4723H144.731ZM150.73 84.0256H150.049L149.769 83.2103H148.552L148.297 84.0256H147.627L148.844 80.4723H149.513L150.73 84.0256ZM149.513 82.614L149.075 81.2998L148.649 82.614H149.513ZM151.022 84.0256V80.4723H151.631L152.921 82.9061V80.4723H153.505V84.0256H152.872L151.655 81.7135V84.0256H151.022ZM154.551 80.4723H155.768C155.995 80.4645 156.222 80.4974 156.437 80.5697C156.594 80.6364 156.732 80.7409 156.839 80.8739C156.981 81.0356 157.085 81.2268 157.143 81.4337C157.212 81.7123 157.245 81.9985 157.241 82.2855C157.245 82.5572 157.208 82.8281 157.131 83.0886C157.07 83.2823 156.976 83.4637 156.851 83.6241C156.739 83.7531 156.597 83.8532 156.437 83.9161C156.236 83.9952 156.021 84.0324 155.805 84.0256H154.588V80.4723H154.551ZM155.184 81.0808V83.4172H155.659C155.803 83.4437 155.952 83.4437 156.097 83.4172C156.187 83.3864 156.267 83.3317 156.328 83.259C156.402 83.1581 156.452 83.0415 156.474 82.9183C156.538 82.5151 156.538 82.1045 156.474 81.7014C156.438 81.5687 156.376 81.4445 156.291 81.3363C156.21 81.2499 156.104 81.1904 155.987 81.1659C155.817 81.1492 155.646 81.1492 155.476 81.1659L155.184 81.0808ZM157.618 82.2976C157.606 81.9376 157.676 81.5795 157.825 81.2511C157.935 81.0008 158.117 80.789 158.348 80.6427C158.587 80.5017 158.861 80.43 159.139 80.4358C159.347 80.43 159.554 80.4694 159.745 80.5514C159.936 80.6333 160.107 80.7558 160.246 80.9104C160.524 81.3154 160.672 81.7947 160.672 82.2855C160.672 82.7763 160.524 83.2556 160.246 83.6606C159.959 83.9437 159.572 84.1024 159.169 84.1024C158.766 84.1024 158.379 83.9437 158.092 83.6606C157.773 83.2758 157.613 82.7843 157.642 82.2855L157.618 82.2976ZM158.275 82.2976C158.255 82.6202 158.34 82.9407 158.518 83.2103C158.593 83.307 158.689 83.3849 158.798 83.4378C158.908 83.4906 159.029 83.5169 159.151 83.5145C159.27 83.517 159.387 83.4906 159.493 83.4376C159.599 83.3846 159.69 83.3066 159.76 83.2103C159.951 82.9418 160.042 82.6142 160.015 82.2855C160.039 81.9625 159.953 81.6409 159.772 81.3728C159.695 81.2871 159.601 81.2185 159.497 81.1715C159.392 81.1245 159.278 81.1002 159.163 81.1002C159.048 81.1002 158.935 81.1245 158.83 81.1715C158.725 81.2185 158.631 81.2871 158.555 81.3728C158.368 81.643 158.281 81.9704 158.311 82.2976H158.275ZM161.001 82.9183L161.621 82.8452C161.694 83.2955 161.913 83.5267 162.303 83.5267C162.464 83.5348 162.623 83.4876 162.753 83.3928C162.806 83.3507 162.849 83.297 162.879 83.2359C162.908 83.1748 162.923 83.1078 162.923 83.0399C162.941 82.9721 162.941 82.9009 162.923 82.8331C162.877 82.7762 162.819 82.7305 162.753 82.6992L162.181 82.5167C161.971 82.4676 161.77 82.3854 161.585 82.2733C161.462 82.179 161.363 82.0584 161.293 81.9204C161.212 81.7798 161.17 81.6202 161.171 81.458C161.169 81.2733 161.22 81.0918 161.317 80.9347C161.409 80.781 161.545 80.6581 161.707 80.5818C161.903 80.4996 162.114 80.4582 162.327 80.4602C162.64 80.4385 162.95 80.5387 163.191 80.74C163.299 80.8436 163.384 80.9685 163.44 81.1068C163.497 81.2452 163.524 81.3938 163.52 81.5432H162.887C162.89 81.47 162.876 81.3972 162.847 81.3299C162.819 81.2625 162.775 81.2023 162.721 81.1536C162.666 81.1048 162.602 81.0686 162.531 81.0476C162.461 81.0266 162.387 81.0213 162.315 81.0321C162.178 81.0247 162.043 81.0586 161.926 81.1294C161.883 81.1539 161.847 81.1893 161.822 81.232C161.797 81.2748 161.784 81.3234 161.784 81.3728C161.784 81.4223 161.797 81.4709 161.822 81.5136C161.847 81.5564 161.883 81.5918 161.926 81.6162C162.098 81.7298 162.293 81.8046 162.498 81.8352C162.742 81.8922 162.976 81.9866 163.191 82.1151C163.33 82.2037 163.44 82.3305 163.508 82.4802C163.594 82.6448 163.636 82.8295 163.629 83.0156C163.632 83.1601 163.605 83.3035 163.551 83.4374C163.496 83.5712 163.415 83.6927 163.313 83.7944C163.186 83.9114 163.036 84.0001 162.872 84.0547C162.709 84.1092 162.535 84.1284 162.364 84.1108C162.184 84.1437 162 84.136 161.824 84.0882C161.649 84.0404 161.486 83.9537 161.348 83.8346C161.21 83.7154 161.101 83.5669 161.028 83.3999C160.955 83.2328 160.921 83.0516 160.928 82.8696L161.001 82.9183Z" fill="#003383"/>
<path fill-rule="evenodd" clip-rule="evenodd" d="M163.498 74.9905C159.753 75.9487 155.953 76.6761 152.12 77.1687C148.4 77.657 144.652 77.9049 140.9 77.911C129.697 77.911 121.077 75.4772 115.041 70.6097C109.006 65.7422 105.992 58.7127 106 49.5212C106 39.2669 109.334 31.2801 116.003 25.5608C117.426 24.3444 118.957 23.2609 120.578 22.3239C127.174 17.4563 140.45 16.6045 148.798 17.1399C155.576 21.0826 162.731 24.7941 162.451 32.1928C159.044 31.4261 156.111 30.8785 153.641 30.5256C151.261 30.1592 148.857 29.964 146.449 29.9415C139.529 29.9415 134.134 31.6979 130.265 35.2106C126.395 38.7234 124.46 43.5909 124.46 49.8132C124.46 54.4617 125.86 58.0637 128.622 60.6313C131.384 63.1989 135.278 64.501 140.255 64.501C141.305 64.5043 142.354 64.4393 143.395 64.3063C144.456 64.174 145.505 63.9625 146.534 63.6735C146.68 62.3592 146.778 61.1302 146.851 60.0228C146.924 58.9155 146.96 57.7594 146.96 56.7373V55.1066H139.744L140.438 42.4511H164.909C164.422 47.6837 164.049 52.5796 163.79 57.1388C163.546 61.7143 163.412 65.657 163.412 69.0278C163.412 70.3298 163.412 71.4615 163.412 72.3255C163.412 73.1895 163.473 74.1022 163.498 74.9905Z" fill="#003383"/>
<path fill-rule="evenodd" clip-rule="evenodd" d="M105 17.2798C107.98 17.2132 110.961 17.3596 113.92 17.7179C115.576 17.9611 117.19 18.4363 118.714 19.1295C121.134 20.3508 123.094 22.3232 124.3 24.7515C125.712 27.5223 126.423 30.5979 126.368 33.7077C126.368 40.1977 124.433 45.4222 120.564 49.3811C116.694 53.3401 111.591 55.3073 105.255 55.283C104.805 55.283 104.27 55.283 103.661 55.283C103.053 55.283 102.347 55.1613 101.568 55.0761L97.4309 43.3819C101.033 43.3819 103.714 42.7654 105.474 41.5322C106.354 40.8923 107.056 40.0397 107.516 39.0543C107.975 38.0688 108.177 36.9829 108.103 35.8981C108.157 34.9956 108.013 34.0922 107.681 33.2513C107.349 32.4104 106.837 31.6524 106.18 31.0306C104.684 29.7614 102.761 29.1088 100.802 29.2052C99.9133 29.2052 96.5304 29.3269 94.486 29.5581L92.2348 78.3429H74.6387C75.4905 70.6522 76.1679 61.6311 76.6709 51.2795C77.1738 40.9279 77.5146 29.5946 77.693 17.2798H105Z" fill="#003383"/>
<path fill-rule="evenodd" clip-rule="evenodd" d="M51.1771 24.6782C51.457 24.0211 51.8221 23.1328 52.2358 21.9889C52.6495 20.845 53.2093 19.3118 53.9029 17.2917H75.2227C75.3566 18.3991 75.5391 19.4943 75.7338 20.553C75.947 21.6247 76.215 22.6848 76.5369 23.7291L92.2347 78.2697H74.6751C74.5899 77.5274 74.4804 76.7121 74.3344 75.8359C74.1883 74.9598 73.9936 73.9984 73.7624 72.9032L70.8298 59.1525H51.6517L47.1736 71.3213C46.7842 72.453 46.4069 73.6212 46.0541 74.8016C45.7012 75.9819 45.3726 77.1745 45.0805 78.3305H38.5946L28.75 75.2031L51.1771 24.6782ZM63.4798 25.8099L56.2759 45.28H67.8606L63.4798 25.8099Z" fill="#003383"/>
<path fill-rule="evenodd" clip-rule="evenodd" d="M19.8677 58.2886C19.1712 57.9296 18.5004 57.523 17.8599 57.0717C12.177 52.6301 16.1197 44.4527 49.9003 38.9402C62.2427 37.054 74.773 36.7228 87.1978 37.9545C93.1483 38.5995 93.7567 41.0332 93.9028 42.5543C96.4095 38.4291 96.4217 33.0383 85.2142 31.067C62.9088 27.7936 33.2291 32.0526 19.8555 39.4513C12.6151 43.54 11.4591 49.2715 12.3474 52.1433C13.1148 53.7141 14.2249 55.0926 15.596 56.1773C16.967 57.2619 18.5641 58.025 20.2693 58.4103L19.8677 58.2886Z" fill="#F0CE00"/>
<path fill-rule="evenodd" clip-rule="evenodd" d="M16.4355 55.6237C18.6016 56.4998 23.7368 57.7167 25.3796 56.4268L27.4605 60.2235C23.7733 60.333 17.6038 57.8505 16.4355 55.6237Z" fill="#003383"/>
<path fill-rule="evenodd" clip-rule="evenodd" d="M44.8254 78.3184C38.8262 76.6635 33.5571 71.796 33.4475 65.2248C33.1172 55.9063 35.0329 46.645 39.033 38.2222C54.0007 10.0149 62.7135 2.093 70.3677 0.47455H70.7328C71.1779 0.372815 71.6291 0.299653 72.0835 0.255511L72.6068 0.328524C71.4156 0.0228768 70.1815 -0.0799684 68.9561 0.0243039C65.9504 0.182498 61.1194 1.67926 53.6843 6.77799C43.8762 14.2253 38.5098 20.9425 32.5105 31.5659C26.8642 41.5565 21.3274 58.033 23.749 70.1532C25.0024 77.1502 31.6466 79.0972 44.8254 78.3184Z" fill="#F0CE00"/>
<path fill-rule="evenodd" clip-rule="evenodd" d="M70.3556 0.48667C78.6426 -1.8254 74.0915 13.9697 73.1301 19.7377C67.6907 19.1293 70.2339 19.6525 66.5225 18.7034C67.8367 14.9311 73.629 1.88608 70.3556 0.48667Z" fill="#003383"/>
<path fill-rule="evenodd" clip-rule="evenodd" d="M162.534 32.5395C166.477 22.5124 156.584 16.9634 138.805 14.3714C106.911 9.73512 56.1181 9.80813 17.9324 23.1208C-1.5377 30.4221 -2.64506 35.5938 2.89175 40.5831C4.47498 41.9437 6.17275 43.1651 7.96614 44.2337C6.37203 42.238 5.8366 41.4835 5.73925 39.9381C5.61756 33.6225 20.3418 25.6641 74.5782 20.8696C95.1192 19.9569 156.34 15.7222 162.534 32.5395Z" fill="#F0CE00"/>
</g>
</g>
</g>
<defs>
<clipPath id="clip0_11_388">
<rect width="165" height="85.06" fill="white"/>
</clipPath>
<clipPath id="clip1_11_388">
<rect width="165" height="85.06" fill="white"/>
</clipPath>
<clipPath id="clip2_11_388">
<rect width="164.985" height="85.06" fill="white" transform="translate(0.0078125)"/>
</clipPath>
</defs>
</svg>
