<svg width="22" height="22" viewBox="0 0 22 22" fill="none" xmlns="http://www.w3.org/2000/svg">
<path d="M21.6377 19.9094L16.8065 15.0763C18.255 13.1887 18.9313 10.8208 18.6982 8.45292C18.465 6.08504 17.3398 3.89451 15.5509 2.32567C13.762 0.756842 11.4433 -0.0728088 9.06509 0.00501944C6.68693 0.0828476 4.42741 1.06233 2.74489 2.74477C1.06238 4.4272 0.0828515 6.68662 0.00501967 9.06467C-0.0728121 11.4427 0.756877 13.7613 2.32578 15.5502C3.89469 17.339 6.08532 18.4642 8.45331 18.6973C10.8213 18.9305 13.1893 18.2542 15.077 16.8057L19.9124 21.6418C20.0259 21.7554 20.1607 21.8455 20.3091 21.9069C20.4575 21.9684 20.6165 22 20.7771 22C20.9377 22 21.0967 21.9684 21.2451 21.9069C21.3934 21.8455 21.5283 21.7554 21.6418 21.6418C21.7554 21.5283 21.8455 21.3935 21.9069 21.2451C21.9684 21.0967 22 20.9377 22 20.7771C22 20.6166 21.9684 20.4575 21.9069 20.3092C21.8455 20.1608 21.7554 20.026 21.6418 19.9125L21.6377 19.9094ZM2.46211 9.37952C2.46211 8.01136 2.86784 6.67393 3.62798 5.53635C4.38812 4.39877 5.46854 3.51214 6.73261 2.98857C7.99668 2.46499 9.38763 2.32801 10.7296 2.59492C12.0715 2.86183 13.3041 3.52066 14.2716 4.48809C15.2391 5.45553 15.8979 6.68811 16.1649 8.02998C16.4318 9.37184 16.2948 10.7627 15.7712 12.0267C15.2476 13.2907 14.3609 14.3711 13.2233 15.1312C12.0857 15.8913 10.7482 16.297 9.37995 16.297C7.54581 16.2951 5.78732 15.5657 4.49038 14.2689C3.19345 12.972 2.464 11.2136 2.46211 9.37952Z" fill="#CCCCCC"/>
</svg>
